# xmcd
#
# Track frame offsets:
#	150
#	20994
#	44820
#	69820
#	92194
#	115672
#	136456
#	159951
#
# Disc length: 2429 seconds
#
# Revision: 2
# Processed by: cddbd v1.5.2PL0 Copyright (c) Steve Scherf et al.
# Submitted via: EZCDDA 4.3.2
#
DISCID=6a097b08
DTITLE=Tears Of Magdalena - Myths And Legends
DYEAR=1900
DGENRE=
TTITLE0=Aurora Borealis
TTITLE1=Cut Em Down
TTITLE2=Immortal Love
TTITLE3=The Eastway
TTITLE4=In The Silence
TTITLE5=Nightmare
TTITLE6=Mermaid
TTITLE7=Your Blood Is Mine
EXTD=
EXTT0=
EXTT1=
EXTT2=
EXTT3=
EXTT4=
EXTT5=
EXTT6=
EXTT7=
PLAYORDER=
